HIERARCHY
ROOT Hips
{
  OFFSET 49.4882 86.4424 7.26824
  CHANNELS 6 Xposition Yposition Zposition Zrotation Xrotation Yrotation
  JOINT spine
  {
    OFFSET 0 6.84637 0.3937
    CHANNELS 3 Zrotation Xrotation Yrotation
    JOINT spine1
    {
      OFFSET 0 9.49621 0
      CHANNELS 3 Zrotation Xrotation Yrotation
      JOINT spine2
      {
        OFFSET 0 9.09909 0
        CHANNELS 3 Zrotation Xrotation Yrotation
        JOINT Neck
        {
          OFFSET 0 23.3612 1.11378
          CHANNELS 3 Zrotation Xrotation Yrotation
          JOINT Head
          {
            OFFSET 0 7.05802 0
            CHANNELS 3 Zrotation Xrotation Yrotation
            End Site
            {
              OFFSET 0 17.0844 -5.63419
            }
          }
        }
        JOINT RightShoulder
        {
          OFFSET -3.83136 9.82631 -0.533491
          CHANNELS 3 Zrotation Xrotation Yrotation
          JOINT RightArm
          {
            OFFSET 0 12.8881 0
            CHANNELS 3 Zrotation Xrotation Yrotation
            JOINT RightArmRoll
            {
              OFFSET 0 6.50617 0
              CHANNELS 3 Zrotation Xrotation Yrotation
              JOINT RightForeArm
              {
                OFFSET 0 18.9501 0
                CHANNELS 3 Zrotation Xrotation Yrotation
                JOINT RightForeArmRoll
                {
                  OFFSET 0 7.30093 0
                  CHANNELS 3 Zrotation Xrotation Yrotation
                  JOINT RightHand
                  {
                    OFFSET 0 14.6514 0
                    CHANNELS 3 Zrotation Xrotation Yrotation
                    End Site
                    {
                      OFFSET 0 0 0
                    }
                  }
                }
              }
            }
          }
        }
        JOINT LeftShoulder
        {
          OFFSET 3.83136 9.82631 -0.533491
          CHANNELS 3 Zrotation Xrotation Yrotation
          JOINT LeftArm
          {
            OFFSET 0 12.8881 0
            CHANNELS 3 Zrotation Xrotation Yrotation
            JOINT LeftArmRoll
            {
              OFFSET 0 6.50617 0
              CHANNELS 3 Zrotation Xrotation Yrotation
              JOINT LeftForeArm
              {
                OFFSET 0 18.9501 0
                CHANNELS 3 Zrotation Xrotation Yrotation
                JOINT LeftForeArmRoll
                {
                  OFFSET 0 7.30093 0
                  CHANNELS 3 Zrotation Xrotation Yrotation
                  JOINT LeftHand
                  {
                    OFFSET 0 14.6514 0
                    CHANNELS 3 Zrotation Xrotation Yrotation
                    End Site
                    {
                      OFFSET 0 0 0
                    }
                  }
                }
              }
            }
          }
        }
      }
    }
  }
  JOINT RightUpLeg
  {
    OFFSET -6.06837 -1.11278 -0.933477
    CHANNELS 3 Zrotation Xrotation Yrotation
    JOINT RightUpLegRoll
    {
      OFFSET 0 17.1796 0
      CHANNELS 3 Zrotation Xrotation Yrotation
      JOINT RightLeg
      {
        OFFSET 0 -21.2743 0
        CHANNELS 3 Zrotation Xrotation Yrotation
        JOINT RightLegRoll
        {
          OFFSET 0 21.3439 0
          CHANNELS 3 Zrotation Xrotation Yrotation
          JOINT RightFoot
          {
            OFFSET 0 17.7652 0
            CHANNELS 3 Zrotation Xrotation Yrotation
            JOINT RightToeBase
            {
              OFFSET 0 14.8508 0
              CHANNELS 3 Zrotation Xrotation Yrotation
              End Site
              {
                OFFSET 0.0062947 7.19213 -0.829005
              }
            }
          }
        }
      }
    }
  }
  JOINT LeftUpLeg
  {
    OFFSET 6.06837 -1.11278 -0.933477
    CHANNELS 3 Zrotation Xrotation Yrotation
    JOINT LeftUpLegRoll
    {
      OFFSET 0 17.1797 0
      CHANNELS 3 Zrotation Xrotation Yrotation
      JOINT LeftLeg
      {
        OFFSET 0 21.2742 0
        CHANNELS 3 Zrotation Xrotation Yrotation
        JOINT LeftLegRoll
        {
          OFFSET 0 21.5412 0
          CHANNELS 3 Zrotation Xrotation Yrotation
          JOINT LeftFoot
          {
            OFFSET 0 17.5679 0
            CHANNELS 3 Zrotation Xrotation Yrotation
            JOINT LeftToeBase
            {
              OFFSET 0 14.8508 0
              CHANNELS 3 Zrotation Xrotation Yrotation
              End Site
              {
                OFFSET -0.0282102 7.19213 -0.829005
              }
            }
          }
        }
      }
    }
  }
}
MOTION
Frames: 12
Frame Time: 0.00208333
49.5932 86.4027 6.43365 -0.0980749 -2.10841 -0.305058 1.49562 -1.75984 1.26443 3.01469 0.513051 2.37993 2.98817 2.15622 2.33022 -18.4251 5.44298 0.0965428 10.938 7.78462 -4.09502 51.3451 -6.82248 -3.87945 106.795 22.9166 11.6635 -8.90291e-006 -2.26305e-006 -1.07823e-005 16.7369 8.34219 -1.38194 -1.0105e-005 -6.84688e-006 -3.00107 8.02905 -4.9514 0.697699 -77.5039 -8.14927 5.48712 -97.8037 30.6021 -13.4715 -1.2601e-006 1.96387e-007 3.2384e-006 -20.2022 14.2132 2.36618 2.88347e-006 -9.39995e-007 3.00417 -8.02935 -4.95138 -0.697697 -179.407 14.5715 -2.69659 -180 7.01468e-015 178.621 175.992 24.8311 -179.565 -1.49932e-006 -1.9549e-007 0.742204 -24.8448 71.3648 23.1423 8.13649 25.2327 -3.48773 -175.722 13.1533 -1.51241 4.54188e-006 -4.6773e-006 -0.789151 -1.70623 -25.9517 0.559311 5.37675e-007 -3.05192e-006 -0.423576 21.1543 73.6921 -25.283 -8.13649 25.2327 3.48774 
49.5817 86.4049 6.43391 -0.0999571 -2.10799 -0.300383 1.49562 -1.76093 1.26287 3.01465 0.510837 2.37683 2.98813 2.15401 2.32713 -18.4251 5.43854 0.0988614 10.9526 7.72879 -4.08573 51.35 -6.81838 -3.87672 106.823 22.9476 11.6157 -8.90291e-006 -2.26305e-006 -1.07823e-005 16.7429 8.39122 -1.39021 -1.0105e-005 -6.84688e-006 -3.00107 8.02905 -4.9514 0.697699 -77.5311 -8.1541 5.48974 -97.7839 30.6171 -13.487 -1.2601e-006 1.96387e-007 3.2384e-006 -20.2068 14.1557 2.35418 2.88347e-006 -9.39995e-007 3.00417 -8.02935 -4.95138 -0.697697 -179.399 14.5786 -2.70696 -180 7.01468e-015 178.621 175.999 24.8394 -179.567 -1.49932e-006 -1.9549e-007 0.743077 -24.8433 71.3661 23.1437 8.13649 25.2327 -3.48773 -175.719 13.1591 -1.51133 4.54188e-006 -4.6773e-006 -0.789151 -1.7022 -25.9559 0.560968 5.37675e-007 -3.05192e-006 -0.423576 21.1478 73.6904 -25.2819 -8.13649 25.2327 3.48774 
49.5788 86.4005 6.42759 -0.10191 -2.10718 -0.295644 1.49562 -1.76207 1.26123 3.01459 0.508509 2.37356 2.98807 2.15169 2.32388 -18.4256 5.43463 0.101686 10.9674 7.67226 -4.07606 51.3546 -6.81403 -3.87379 106.853 22.9783 11.5677 -8.90291e-006 -2.26305e-006 -1.07823e-005 16.7492 8.43951 -1.39834 -1.0105e-005 -6.84688e-006 -3.00107 8.02905 -4.9514 0.697699 -77.5588 -8.15929 5.49251 -97.7635 30.6318 -13.5024 -1.2601e-006 1.96387e-007 3.2384e-006 -20.2116 14.0985 2.34229 2.88347e-006 -9.39995e-007 3.00417 -8.02935 -4.95138 -0.697697 -179.39 14.5863 -2.71776 -180 7.01468e-015 178.621 176.005 24.8478 -179.569 -1.49932e-006 -1.9549e-007 0.743979 -24.8417 71.3673 23.1451 8.13649 25.2327 -3.48773 -175.715 13.1654 -1.51011 4.54188e-006 -4.6773e-006 -0.789151 -1.698 -25.9601 0.562699 5.37675e-007 -3.05192e-006 -0.423576 21.1409 73.6885 -25.2805 -8.13649 25.2327 3.48774 
49.579 86.4053 6.43844 -0.103912 -2.10611 -0.290861 1.49562 -1.76325 1.25953 3.01451 0.506102 2.37019 2.98799 2.14928 2.32051 -18.4264 5.43109 0.104866 10.9824 7.61522 -4.06612 51.359 -6.8095 -3.87073 106.882 23.0089 11.5194 -8.90291e-006 -2.26305e-006 -1.07823e-005 16.7557 8.48727 -1.40638 -1.0105e-005 -6.84688e-006 -3.00107 8.02905 -4.9514 0.697699 -77.5868 -8.16474 5.49541 -97.7427 30.646 -13.5178 -1.2601e-006 1.96387e-007 3.2384e-006 -20.2168 14.0416 2.33048 2.88347e-006 -9.39995e-007 3.00417 -8.02935 -4.95138 -0.697697 -179.381 14.5943 -2.72885 -180 7.01468e-015 178.621 176.012 24.8563 -179.571 -1.49932e-006 -1.9549e-007 0.744902 -24.84 71.3685 23.1466 8.13649 25.2327 -3.48773 -175.711 13.1722 -1.50881 4.54188e-006 -4.6773e-006 -0.789151 -1.69368 -25.9643 0.564481 5.37675e-007 -3.05192e-006 -0.423576 21.1337 73.6864 -25.279 -8.13649 25.2327 3.48774 
49.5686 86.3996 6.42807 -0.105944 -2.10488 -0.286052 1.49562 -1.76445 1.25779 3.01443 0.503647 2.36674 2.9879 2.14683 2.31708 -18.4274 5.42777 0.108252 10.9975 7.5579 -4.05603 51.3633 -6.80488 -3.86759 106.913 23.0394 11.4711 -8.90291e-006 -2.26305e-006 -1.07823e-005 16.7622 8.53473 -1.41437 -1.0105e-005 -6.84688e-006 -3.00107 8.02905 -4.9514 0.697699 -77.6151 -8.17032 5.49836 -97.7216 30.6601 -13.5332 -1.2601e-006 1.96387e-007 3.2384e-006 -20.222 13.9847 2.31873 2.88347e-006 -9.39995e-007 3.00417 -8.02935 -4.95138 -0.697697 -179.371 14.6026 -2.74011 -180 7.01468e-015 178.621 176.019 24.8648 -179.574 -1.49932e-006 -1.9549e-007 0.745836 -24.8382 71.3696 23.1479 8.13649 25.2327 -3.48773 -175.707 13.1791 -1.50745 4.54188e-006 -4.6773e-006 -0.789151 -1.6893 -25.9684 0.566294 5.37675e-007 -3.05192e-006 -0.423576 21.1263 73.6843 -25.2774 -8.13649 25.2327 3.48774 
49.5733 86.391 6.4212 -0.107983 -2.1036 -0.281235 1.49563 -1.76566 1.25605 3.01434 0.501181 2.36328 2.98782 2.14437 2.31363 -18.4284 5.4245 0.111695 11.0126 7.50049 -4.04591 51.3675 -6.80023 -3.86443 106.943 23.0699 11.4227 -8.90291e-006 -2.26305e-006 -1.07823e-005 16.7688 8.58211 -1.42234 -1.0105e-005 -6.84688e-006 -3.00107 8.02905 -4.9514 0.697699 -77.6434 -8.17595 5.50133 -97.7005 30.6742 -13.5486 -1.2601e-006 1.96387e-007 3.2384e-006 -20.2273 13.9279 2.30699 2.88347e-006 -9.39995e-007 3.00417 -8.02935 -4.95138 -0.697697 -179.362 14.6109 -2.75142 -180 7.01468e-015 178.621 176.026 24.8733 -179.576 -1.49932e-006 -1.9549e-007 0.746774 -24.8364 71.3708 23.1493 8.13649 25.2327 -3.48773 -175.703 13.1861 -1.50608 4.54188e-006 -4.6773e-006 -0.789151 -1.68489 -25.9726 0.568114 5.37675e-007 -3.05192e-006 -0.423576 21.1189 73.6822 -25.2758 -8.13649 25.2327 3.48774 
49.5739 86.3952 6.42696 -0.110009 -2.1024 -0.276431 1.49563 -1.76686 1.25432 3.01426 0.498735 2.35985 2.98773 2.14192 2.31021 -18.4294 5.42113 0.115043 11.0277 7.44322 -4.03587 51.3718 -6.79562 -3.86131 106.973 23.1005 11.3743 -8.90291e-006 -2.26305e-006 -1.07823e-005 16.7754 8.62963 -1.43034 -1.0105e-005 -6.84688e-006 -3.00107 8.02905 -4.9514 0.697699 -77.6716 -8.18151 5.50428 -97.6795 30.6883 -13.564 -1.2601e-006 1.96387e-007 3.2384e-006 -20.2326 13.8711 2.29524 2.88347e-006 -9.39995e-007 3.00417 -8.02935 -4.95138 -0.697697 -179.353 14.6191 -2.76265 -180 7.01468e-015 178.621 176.033 24.8819 -179.578 -1.49932e-006 -1.9549e-007 0.747706 -24.8346 71.3719 23.1507 8.13649 25.2327 -3.48773 -175.699 13.193 -1.50473 4.54188e-006 -4.6773e-006 -0.789151 -1.68052 -25.9767 0.569921 5.37675e-007 -3.05192e-006 -0.423576 21.1115 73.68 -25.2742 -8.13649 25.2327 3.48774 
49.5677 86.3986 6.43876 -0.112002 -2.10138 -0.271657 1.49563 -1.76803 1.25264 3.01418 0.496344 2.35649 2.98765 2.13953 2.30687 -18.4301 5.41751 0.118147 11.0428 7.38628 -4.02601 51.3763 -6.79114 -3.85828 107.003 23.1311 11.3261 -8.90291e-006 -2.26305e-006 -1.07823e-005 16.7819 8.6775 -1.43841 -1.0105e-005 -6.84688e-006 -3.00107 8.02905 -4.9514 0.697699 -77.6996 -8.1869 5.50714 -97.6587 30.7026 -13.5794 -1.2601e-006 1.96387e-007 3.2384e-006 -20.2378 13.8141 2.28345 2.88347e-006 -9.39995e-007 3.00417 -8.02935 -4.95138 -0.697697 -179.344 14.6271 -2.77368 -180 7.01468e-015 178.621 176.04 24.8903 -179.58 -1.49932e-006 -1.9549e-007 0.748624 -24.8329 71.3731 23.1521 8.13649 25.2327 -3.48773 -175.696 13.1996 -1.50344 4.54188e-006 -4.6773e-006 -0.789151 -1.67623 -25.9809 0.571693 5.37675e-007 -3.05192e-006 -0.423576 21.1044 73.678 -25.2727 -8.13649 25.2327 3.48774 
49.5647 86.3946 6.43215 -0.11394 -2.10066 -0.266933 1.49563 -1.76916 1.25101 3.01412 0.494042 2.35327 2.98759 2.13723 2.30365 -18.4305 5.41349 0.120857 11.0577 7.3299 -4.01647 51.3809 -6.78684 -3.85539 107.032 23.1618 11.2779 -8.90291e-006 -2.26305e-006 -1.07823e-005 16.7882 8.72595 -1.4466 -1.0105e-005 -6.84688e-006 -3.00107 8.02905 -4.9514 0.697699 -77.7272 -8.19201 5.50989 -97.6384 30.7173 -13.5949 -1.2601e-006 1.96387e-007 3.2384e-006 -20.2427 13.7568 2.27159 2.88347e-006 -9.39995e-007 3.00417 -8.02935 -4.95138 -0.697697 -179.335 14.6346 -2.78438 -180 7.01468e-015 178.621 176.047 24.8987 -179.582 -1.49932e-006 -1.9549e-007 0.749519 -24.8314 71.3743 23.1535 8.13649 25.2327 -3.48773 -175.692 13.2059 -1.50225 4.54188e-006 -4.6773e-006 -0.789151 -1.67206 -25.9851 0.573408 5.37675e-007 -3.05192e-006 -0.423576 21.0975 73.6761 -25.2714 -8.13649 25.2327 3.48774 
49.5683 86.3874 6.42774 -0.115801 -2.10036 -0.262277 1.49563 -1.77023 1.24948 3.01409 0.491862 2.35022 2.98756 2.13506 2.30061 -18.4303 5.4089 0.123023 11.0724 7.27427 -4.00734 51.3859 -6.78281 -3.85272 107.061 23.1927 11.2301 -8.90291e-006 -2.26305e-006 -1.07823e-005 16.7943 8.7752 -1.45493 -1.0105e-005 -6.84688e-006 -3.00107 8.02905 -4.9514 0.697699 -77.7542 -8.19673 5.51245 -97.6187 30.7325 -13.6104 -1.2601e-006 1.96387e-007 3.2384e-006 -20.2474 13.6991 2.25962 2.88347e-006 -9.39995e-007 3.00417 -8.02935 -4.95138 -0.697697 -179.326 14.6416 -2.79464 -180 7.01468e-015 178.621 176.053 24.907 -179.584 -1.49932e-006 -1.9549e-007 0.750383 -24.8299 71.3757 23.155 8.13649 25.2327 -3.48773 -175.688 13.2115 -1.50121 4.54188e-006 -4.6773e-006 -0.789151 -1.66808 -25.9893 0.575044 5.37675e-007 -3.05192e-006 -0.423576 21.0911 73.6744 -25.2703 -8.13649 25.2327 3.48774 
49.5654 86.39 6.43268 -0.117566 -2.10058 -0.257709 1.49563 -1.77122 1.24805 3.01408 0.489838 2.34739 2.98754 2.13304 2.29779 -18.4295 5.40358 0.124496 11.087 7.21962 -3.99875 51.3912 -6.77912 -3.8503 107.09 23.2239 11.1825 -8.90291e-006 -2.26305e-006 -1.07823e-005 16.8001 8.82547 -1.46346 -1.0105e-005 -6.84688e-006 -3.00107 8.02905 -4.9514 0.697699 -77.7804 -8.20096 5.5148 -97.5997 30.7484 -13.626 -1.2601e-006 1.96387e-007 3.2384e-006 -20.2517 13.641 2.24752 2.88347e-006 -9.39995e-007 3.00417 -8.02935 -4.95138 -0.697697 -179.318 14.6479 -2.80431 -180 7.01468e-015 178.621 176.059 24.9153 -179.586 -1.49932e-006 -1.9549e-007 0.751207 -24.8287 71.3771 23.1565 8.13649 25.2327 -3.48773 -175.685 13.2165 -1.50035 4.54188e-006 -4.6773e-006 -0.789151 -1.66432 -25.9936 0.576579 5.37675e-007 -3.05192e-006 -0.423576 21.0853 73.673 -25.2695 -8.13649 25.2327 3.48774 
49.5547 86.3941 6.42734 -0.119213 -2.10145 -0.253247 1.49563 -1.77213 1.24677 3.0141 0.488004 2.34484 2.98757 2.1312 2.29525 -18.4279 5.3974 0.125125 11.1012 7.16615 -3.99081 51.397 -6.77583 -3.8482 107.117 23.2554 11.1353 -8.90291e-006 -2.26305e-006 -1.07823e-005 16.8056 8.87698 -1.47223 -1.0105e-005 -6.84688e-006 -3.00107 8.02905 -4.9514 0.697699 -77.8058 -8.2046 5.51688 -97.5816 30.765 -13.6418 -1.2601e-006 1.96387e-007 3.2384e-006 -20.2555 13.5824 2.23526 2.88347e-006 -9.39995e-007 3.00417 -8.02935 -4.95138 -0.697697 -179.311 14.6532 -2.81328 -180 7.01468e-015 178.621 176.065 24.9233 -179.588 -1.49932e-006 -1.9549e-007 0.751983 -24.8277 71.3786 23.1581 8.13649 25.2327 -3.48773 -175.682 13.2205 -1.4997 4.54188e-006 -4.6773e-006 -0.789151 -1.66084 -25.998 0.577992 5.37675e-007 -3.05192e-006 -0.423576 21.0802 73.6719 -25.2691 -8.13649 25.2327 3.48774 
